<?xml version="1.0" encoding="utf-8"?>
<svg viewBox="0 0 500 500" xmlns="http://www.w3.org/2000/svg">
  <g transform="matrix(2.889908, 0, 0, 2.889908, 1.163704, -63.888359)" style="">
    <g transform="matrix(1, 0, 0, 1, 3.47278, 55.627727)">
      <path fill="#0d131a" d="M 108.7 12 C 116.733 20.033 120.75 29.467 120.75 40.3 L 120.9 99.85 C 120.9 101.983 117.383 103.783 110.35 105.25 C 102.617 106.817 92.217 107.6 79.15 107.6 C 66.817 107.6 56.717 106.2 48.85 103.4 C 42.383 101.067 39.15 100.717 39.15 98.35 L 40.35 39.35 C 40.35 28.55 44.317 19.283 52.25 11.55 C 60.117 3.85 69.5 0 80.4 0 C 91.267 0 100.7 4 108.7 12"/>
      <path fill="#865b15" d="M 117.6 40.3 L 118.15 95.35 C 118.15 97.683 114.733 99.917 107.9 102.05 C 100.433 104.417 91.767 105.6 81.9 105.6 C 70.333 105.6 61 104.7 53.9 102.9 C 45.733 100.867 41.65 97.85 41.65 93.85 L 43.15 40.3 C 43.15 30 46.783 21.217 54.05 13.95 C 61.317 6.683 70.1 3.05 80.4 3.05 C 90.667 3.05 99.433 6.683 106.7 13.95 C 113.967 21.217 117.6 30 117.6 40.3"/>
      <path fill="#6a4504" d="M 107.3 14.6 C 110.567 18 113.083 21.867 114.85 26.2 C 116.683 30.667 117.6 35.367 117.6 40.3 L 118.15 95.35 C 118.15 97.683 114.733 99.917 107.9 102.05 C 100.433 104.417 91.767 105.6 81.9 105.6 L 71 105.3 C 72.667 103.8 74.4 102.483 76.2 101.35 C 89.133 92.85 98.05 66.15 102.95 53.25 C 106.983 42.583 108.433 29.7 107.3 14.6"/>
      <path fill="#0d131a" d="M90.2 33.85 Q94.2 35.9 94.2 38.85 94.2 41.8 90.2 43.85 86.1 45.9 79.9 45.9 73.7 45.9 69.55 43.85 65.5 41.8 65.5 38.85 65.5 35.9 69.55 33.85 73.7 31.75 79.9 31.75 86.1 31.75 90.2 33.85"/>
      <path fill="#0d131a" d="M92.4 29.25 Q89.95 29.25 89.95 21.85 89.95 14.4 92.4 14.4 94.9 14.4 94.9 21.85 94.9 25.45 94.2 27.4 93.55 29.25 92.4 29.25"/>
      <path fill="#0d131a" d="M67.4 29.25 Q66.2 29.25 65.55 27.35 64.9 25.45 64.9 21.85 64.9 18.05 65.65 16.1 66.3 14.4 67.4 14.4 69.85 14.4 69.85 21.85 69.85 25.3 69.1 27.35 68.45 29.25 67.4 29.25"/>
      <path fill="#eb6d80" d="M88.9 35.1 Q92.65 36.65 92.65 38.85 92.65 41.05 88.9 42.6 85.2 44.15 79.9 44.15 74.65 44.15 70.9 42.6 67.15 41.05 67.15 38.85 67.15 36.65 70.9 35.1 74.6 33.55 79.9 33.55 85.2 33.55 88.9 35.1"/>
      <path fill="#cb5e71" d="M92.4 37.8 L92.65 38.85 Q92.65 41.05 88.9 42.6 85.2 44.15 79.9 44.15 75.0 44.15 71.4 42.8 67.8 41.45 67.25 39.45 72.35 42.2 78.55 42.2 86.55 42.2 92.4 37.8"/>
      <path fill="#f6c7ce" d="M75.25 38.85 L71.25 38.95 Q69.5 38.6 69.35 37.75 69.15 36.9 70.7 36.0 72.2 35.05 74.5 34.65 L78.55 34.55 Q80.3 34.9 80.45 35.75 80.6 36.6 79.1 37.55 77.55 38.45 75.25 38.85"/>
      <path fill="#ffffff" d="M68.45 17.75 L68.15 19.2 Q67.8 19.8 67.35 19.8 66.85 19.8 66.55 19.2 66.2 18.6 66.2 17.75 66.2 16.9 66.55 16.3 66.85 15.7 67.35 15.7 67.8 15.7 68.15 16.3 L68.45 17.75"/>
      <path fill="#ffffff" d="M93.55 17.7 L93.25 19.15 92.45 19.75 Q91.95 19.75 91.65 19.15 91.3 18.55 91.3 17.7 91.3 16.85 91.65 16.25 91.95 15.65 92.45 15.65 L93.25 16.25 93.55 17.7"/>
    </g>
  </g>
</svg>