<?xml version="1.0" encoding="utf-8"?>
<svg viewBox="0 0 500 500" xmlns="http://www.w3.org/2000/svg">
  <g transform="matrix(2.340387, 0, 0, 2.538023, 63.786186, 7.829591)" style="">
    <path d="M 119.269 76.685 L 119.6 64.1 L 120.35 64.2 L 122.35 64 L 124.35 63.5 L 126.35 63.55 L 126.55 63.65 L 127.3 63.6 C 127.933 63.6 128.933 63.883 130.3 64.45 C 131.567 64.95 132.4 65.383 132.8 65.75 C 133.6 66.083 134.45 66.817 135.35 67.95 C 136.317 69.15 137.133 69.95 137.8 70.35 C 138.633 70.817 139.517 71.15 140.45 71.35 C 141.25 71.55 142.067 71.917 142.9 72.45 C 143.467 72.817 143.75 73.367 143.75 74.1 L 144.95 76.6 L 145.1 78 L 152.45 83.15 C 155.083 85.083 156.4 86.75 156.4 88.15 C 156.4 91.317 155.617 93.833 154.05 95.7 C 152.55 97.467 149.8 99.267 145.8 101.1 C 145.167 101.367 143.883 102.383 141.95 104.15 C 140.083 105.817 138.683 106.8 137.75 107.1 C 136.55 107.467 134.517 107.467 131.65 107.1 L 126.6 106.75 L 119.8 113.25 C 115.633 117.35 112.35 119.517 109.95 119.75 C 109.45 119.817 107.55 118.933 104.25 117.1 C 100.95 115.267 99.05 114.367 98.55 114.4 C 96.85 114.533 95 114.55 93 114.45 L 87.1 114.4 C 86.233 114.433 84.533 115.85 82 118.65 C 79.467 121.417 77.75 122.8 76.85 122.8 C 66.717 122.8 59.717 121.817 55.85 119.85 C 54.917 119.35 54.067 117.75 53.3 115.05 C 52.5 112.35 51.75 110.8 51.05 110.4 L 48.15 108.7 C 47.55 108.4 46.55 108.067 45.15 107.7 C 43.583 107.267 40.717 108.183 36.55 110.45 C 32.383 112.717 29.95 113.733 29.25 113.5 C 25.05 112.167 22 111.033 20.1 110.1 C 17.767 108.967 15.517 107.433 13.35 105.5 C 12.45 104.7 11.767 103.2 11.3 101 C 10.8 98.567 10.333 97.033 9.9 96.4 L 7 91.95 L 4.05 87.95 L 1.7 84.9 C 0.967 83.667 0.833 82.55 1.3 81.55 C 1.967 80.083 3.767 78.317 6.7 76.25 L 13.8 71.4 L 14.45 70.85 C 14.45 69.517 14.55 68.683 14.75 68.35 C 15.017 67.883 15.433 67.517 16 67.25 C 16.267 67.117 16.517 67.033 16.75 67 L 17.55 66.15 L 19.1 65 C 22.533 64 23.748 62.052 24.581 61.619 C 25.781 61.052 27.783 61.417 28.75 60.25 L 30 59.15 C 30.6 58.75 31.1 58.483 31.5 58.35 L 34.9 58.2 L 36 58.15 L 37.4 57.95 L 37.586 58.14 C 33.33 76.221 53.551 83.743 59.264 77.096 C 68.872 84.033 68.274 86.131 82.876 83.446 C 88.679 82.379 98.532 78.047 106.432 80.58" fill="#b9bf9c" style="stroke-width: 3px; vector-effect: non-scaling-stroke;"/>
    <path d="M 97.35 80.05 L 96.4 78 L 102.4 78.1 C 102.933 78.2 104.05 79.617 105.75 82.35 L 109.95 80 L 114.2 78.95 L 118.6 78 C 119.033 78 117.585 76.79 117.618 76.257 C 118.455 75.888 114.554 63.769 113.812 63.843 L 122.5 64.05 L 126.55 63.65 C 127.317 63.617 129.067 64.133 131.8 65.2 C 132.433 65.467 133.467 66.333 134.9 67.8 L 137.4 70.35 C 137.7 70.583 138.617 70.917 140.15 71.35 L 142.85 72.15 C 143.317 72.383 143.95 74.183 144.75 77.55 L 145.8 78.25 L 147.45 79.2 L 152.05 82.7 C 154.683 84.9 156.017 86.133 156.05 86.4 C 156.15 86.9 156.117 87.967 155.95 89.6 C 155.783 91.6 155.467 93.15 155 94.25 C 154.567 95.283 152.733 96.8 149.5 98.8 L 144.75 101.5 L 143.1 103.95 C 142.567 104.717 140.867 105.767 138 107.1 C 137.2 107.433 133.233 107.333 126.1 106.8 L 122.35 111.1 C 120.917 112.767 116.783 115.65 109.95 119.75 C 108.617 107.417 108 100.233 108.1 98.2 C 108.167 97.067 106.767 94.667 103.9 91 C 100.8 87.033 99.133 84.717 98.9 84.05 L 97.35 80.05" fill="#92967b"/>
    <path d="M82.15 86.0 Q83.8 84.0 84.5 83.5 85.25 83.0 88.05 82.1 L88.45 80.55 Q88.95 78.95 89.4 78.75 L95.8 78.25 Q101.35 77.5 102.4 78.1 103.3 78.6 105.3 81.6 L107.55 81.25 109.6 80.2 Q111.25 79.3 111.9 79.25 L113.65 78.8 115.8 78.35 118.15 78.2 Q119.35 78.1 119.65 77.6 L121.7 76.05 Q123.25 75.1 123.65 75.0 L126.05 74.9 129.05 75.25 Q131.25 75.95 132.3 77.0 L134.0 78.95 Q135.35 80.45 136.4 81.1 L139.3 82.9 141.55 84.6 143.8 87.35 Q145.35 89.65 145.35 91.45 L144.05 93.05 Q142.55 95.1 141.6 97.45 140.65 99.75 137.15 100.7 133.2 101.4 131.95 101.85 L126.4 101.45 121.8 100.55 Q121.0 100.75 119.45 106.5 L117.85 113.1 Q117.7 113.8 113.2 114.05 L107.85 114.5 Q107.45 114.7 101.4 112.0 94.95 109.1 92.1 109.45 L83.7 110.4 Q78.45 111.2 77.85 112.2 77.15 113.35 75.2 114.15 73.2 114.95 71.6 114.7 L67.75 113.35 61.35 112.95 Q58.25 113.5 52.15 106.85 45.95 100.05 44.4 100.05 42.4 100.05 36.5 103.45 31.2 106.5 30.95 105.95 L25.6 105.6 19.05 105.95 Q17.55 105.7 16.05 102.25 14.7 99.15 14.7 97.2 14.7 95.85 16.9 93.3 L19.1 91.0 Q19.95 90.0 21.55 89.1 L23.45 87.85 Q24.2 86.9 29.65 82.6 36.9 76.75 38.25 76.5 L40.75 76.7 Q42.1 77.05 42.65 77.5 L43.9 78.0 Q44.75 78.05 45.4 77.6 L48.75 75.1 Q49.05 74.95 51.75 75.1 L55.65 75.35 58.15 75.6 Q59.45 75.8 60.0 76.25 L62.45 78.6 65.0 81.1 Q65.85 81.75 67.35 82.4 L69.5 83.0 72.45 82.5 75.5 82.1 Q76.65 82.25 82.15 86.0" fill="#b9bf9c"/>
    <path d="M96.45 78.15 L98.25 78.0 102.4 78.1 Q103.3 78.6 105.3 81.6 L105.75 82.35 110.05 79.95 117.0 78.3 Q119.3 78.2 119.65 77.6 L121.7 76.05 Q123.25 75.1 123.65 75.0 L126.05 74.9 129.05 75.25 Q131.25 75.95 132.3 77.0 L134.0 78.95 Q135.35 80.45 136.4 81.1 137.2 81.65 140.05 82.7 142.55 83.6 143.05 84.15 147.05 88.85 147.05 91.6 L145.35 93.65 Q143.45 96.15 142.5 98.5 141.55 100.85 138.05 102.25 134.1 103.4 132.85 103.85 131.4 104.35 127.0 103.3 L122.05 102.25 Q121.25 102.45 119.6 108.0 L117.9 114.4 Q117.7 115.15 114.55 115.1 111.35 115.05 109.35 114.25 108.0 100.25 108.1 98.2 108.2 96.5 103.9 91.0 99.25 85.05 98.9 84.05 97.95 81.2 96.45 78.15" fill="#92967b"/>
    <path d="M75.65 98.7 Q79.95 97.05 80.75 97.55 81.55 98.05 83.85 105.8 86.1 113.6 85.7 114.65 L82.6 118.4 79.45 121.15 Q77.05 122.9 76.45 123.0 60.85 122.3 60.85 120.65 60.85 118.95 65.2 110.75 68.9 103.9 70.45 101.6 71.35 100.35 75.65 98.7" fill="#92967b"/>
    <path d="M15.35 97.6 Q18.35 90.6 18.9 90.3 23.45 88.2 24.1 87.4 L26.5 84.95 28.9 82.85 34.8 78.55 36.8 77.0 Q38.3 75.95 38.95 75.95 L43.5 78.4 Q43.95 78.65 44.75 83.0 L45.6 89.0 Q45.7 91.2 44.8 107.45 30.2 113.6 29.25 113.5 28.6 113.45 20.85 109.4 13.3 105.45 12.75 105.0 12.35 104.65 15.35 97.6" fill="#92967b"/>
    <path d="M 99.5 78.5 L 95.05 78.6 L 91.9 78.85 C 90.6 79.017 89.817 79.233 89.55 79.5 C 89.283 79.767 89 80.383 88.7 81.35 L 88.3 82.75 C 86.467 83.15 85.25 83.6 84.65 84.1 C 84.283 84.4 83.883 85 83.45 85.9 L 82.5 87.85 C 82.267 88.317 82.017 89.033 81.75 90 C 81.517 90.9 81.4 91.517 81.4 91.85 L 81.45 92.95 C 81.417 93.35 81.267 93.567 81 93.6 C 80.7 93.667 80.4 93.433 80.1 92.9 C 79.833 92.367 79.717 91.85 79.75 91.35 L 81 86.35 L 78.95 84.6 C 77.583 83.6 76.6 83.017 76 82.85 L 72.7 83.1 L 68.75 83.6 C 67.683 83.6 66.5 83.267 65.2 82.6 C 64 82 63.233 81.417 62.9 80.85 C 61.2 78.217 59.983 76.683 59.25 76.25 L 55.85 75.95 L 52.5 76.1 C 49.9 75.867 48.283 76.083 47.65 76.75 L 45.75 78.1 C 44.883 78.6 44.217 78.85 43.75 78.85 C 43.383 78.85 42.683 78.55 41.65 77.95 L 39.65 77 C 39.217 76.933 38.417 77.183 37.25 77.75 C 36.083 78.317 35.25 78.85 34.75 79.35 L 31.45 82.15 L 28 85.1 L 25.75 87.05 L 23.75 88.75 C 23.45 89.083 22.667 89.517 21.4 90.05 L 19.1 91 C 18.8 91.167 18.55 91.05 18.35 90.65 C 18.15 90.217 18.217 89.917 18.55 89.75 L 20.7 88.85 C 22.333 87.983 23.617 86.967 24.55 85.8 C 25.65 84.433 28.133 82.367 32 79.6 C 35.8 76.833 38.133 75.4 39 75.3 C 40.133 75.167 40.95 75.417 41.45 76.05 L 42.35 76.55 L 44.05 77 C 45.05 77 46 76.55 46.9 75.65 C 48.067 74.483 49.683 74.05 51.75 74.35 L 56.7 74.75 L 60.75 75.3 C 61.25 75.5 61.817 76.117 62.45 77.15 L 63.95 79.4 C 65.95 81.4 67.767 82.4 69.4 82.4 L 72.75 81.75 L 75.4 81.1 L 77.7 81.65 C 78.633 81.983 79.3 82.3 79.7 82.6 L 82.322 83.806 C 82.789 82.873 83.8 83.217 85.3 82.35 C 86.033 81.917 86.733 81.567 87.4 81.3 C 87.767 80.167 88.083 79.35 88.35 78.85 C 88.517 78.483 89.1 78.1 90.1 77.7 C 91.1 77.333 92.017 77.15 92.85 77.15 L 98.3 77.15 L 101.25 77 C 102.55 76.967 103.317 77.15 103.55 77.55 L 105.748 80.578 L 109.55 79.4 C 110.283 79.033 113.415 78.103 119.048 76.97 L 121.75 75.1 L 124.15 73.8 L 126.1 74.15 L 129.05 74.75 L 131.5 75.5 C 132.533 75.867 133.217 76.3 133.55 76.8 C 135.183 79.167 136.617 80.667 137.85 81.3 C 138.85 81.8 140.05 82.8 141.45 84.3 C 141.717 84.733 141.617 84.917 141.15 84.85 C 140.75 84.783 140.3 84.583 139.8 84.25 C 139.533 84.05 138.483 83.517 136.65 82.65 L 133.15 80.75 C 132.65 80.383 132.083 79.567 131.45 78.3 L 130.3 76.25 C 130 76.017 128.85 75.833 126.85 75.7 C 124.917 75.6 123.767 75.617 123.4 75.75 L 121.65 77.15 L 119.55 78.6 L 114.8 79.55 L 110.3 80.5 L 106.9 82.6 L 111 84.6 C 113.8 86 115.35 86.883 115.65 87.25 C 115.95 87.617 116.117 88.45 116.15 89.75 L 116.05 92.5 C 116.05 93.033 115.883 93.317 115.55 93.35 C 115.25 93.383 115.033 93.183 114.9 92.75 L 114.65 90.7 L 114.4 88.75 C 114.3 88.417 113.517 87.783 112.05 86.85 L 109.4 85.25 L 105.15 82.85 C 104.85 82.65 104.417 81.983 103.85 80.85 L 102.9 78.85 L 99.5 78.5" fill="#0d131a"/>
    <path d="M 22.3 70.6 L 24 69.5 L 26.45 68 L 29.05 66.55 L 32.05 66.3 C 33.383 66.467 34.933 66.983 36.7 67.85 C 38.467 68.717 39.667 69.567 40.3 70.4 C 40.8 71.033 41.1 71.75 41.2 72.55 C 41.3 73.083 44.693 76.423 44.16 77.223 C 43.627 78.023 42.519 77.08 42.519 76.613 L 39.5 72 C 39.467 71.567 38.733 70.933 37.3 70.1 C 36.067 69.367 35.133 68.917 34.5 68.75 L 31.75 68.15 L 28.9 68.25 L 22.35 72 L 18.5 73.7 L 15.25 75.25 C 14.883 75.517 14.217 76.633 13.25 78.6 L 12.5 80.35 C 12.233 80.983 11.9 81.45 11.5 81.75 C 10.967 82.15 10.567 82.333 10.3 82.3 C 10 82.233 9.933 81.9 10.1 81.3 C 10.367 80.467 11 79.183 12 77.45 C 12.9 75.85 13.517 74.883 13.85 74.55 C 14.083 74.317 15.433 73.667 17.9 72.6 L 22.3 70.6" fill="#0d131a"/>
    <path d="M 120.15 65.1 C 119.383 65.1 118.833 64.867 118.5 64.4 C 118.167 63.933 118.35 63.633 119.05 63.5 L 122.6 63 L 126.65 62.75 C 127.55 62.817 128.933 63.15 130.8 63.75 C 132.767 64.383 133.85 64.883 134.05 65.25 L 135.65 67.65 C 136.583 68.883 137.217 69.583 137.55 69.75 L 140.65 70.75 L 143.45 71.75 L 144.35 74 L 145.15 76.85 C 148.017 78.35 150.6 80.017 152.9 81.85 C 155.033 83.617 156.317 85.017 156.75 86.05 C 156.883 86.35 156.883 87.85 156.75 90.55 C 156.617 93.35 156.383 94.95 156.05 95.35 C 155.483 96.017 154.05 97.133 151.75 98.7 C 149.017 100.533 146.783 101.733 145.05 102.3 C 143.383 105.4 141.367 107.383 139 108.25 C 138.2 108.55 135.967 108.55 132.3 108.25 L 126.5 107.7 C 125.267 109.7 122.717 112.417 118.85 115.85 C 114.583 119.617 111.617 121.467 109.95 121.4 C 108.883 121.367 106.8 120.4 103.7 118.5 L 99.2 115.65 C 98.833 115.55 96.883 115.55 93.35 115.65 L 86.6 115.8 L 82.65 120.05 C 79.917 122.783 77.933 124.233 76.7 124.4 L 64.8 123.4 C 58.8 122.467 55.383 121.717 54.55 121.15 C 54.183 120.917 53.483 119.283 52.45 116.25 L 51 111.65 C 50.633 111.35 49.567 110.75 47.8 109.85 C 46 108.917 44.917 108.417 44.55 108.35 L 37 111.75 L 29.25 115.15 C 28.183 115.25 22.467 112.117 12.1 105.75 C 10.667 102.683 9.9 100.05 9.8 97.85 C 9.767 97.417 9.183 96.583 8.05 95.35 L 4.95 91.95 C 1.65 87.883 0 84.583 0 82.05 C 0 80.817 1.533 78.867 4.6 76.2 C 7.7 73.5 10.617 71.583 13.35 70.45 C 13.783 70.25 14.2 69.65 14.6 68.65 C 14.6 68.283 14.65 68.017 14.75 67.85 L 16.05 66.2 C 16.717 65.533 17.283 65.05 17.75 64.75 C 18.117 64.517 19.367 64.133 21.5 63.6 L 23.197 60.509 L 27.85 60.25 L 30.5 57.85 L 32.4 57.55 L 34.25 57.6 L 35.95 57.05 L 37.5 56.45 C 38 56.45 37.472 56.28 39.639 57.113 C 40.039 57.213 39.605 57.611 39.438 58.111 C 39.271 58.611 38.785 58.848 38.485 58.781 L 37.5 58.5 L 35.95 58.4 C 35.417 58.467 35.017 58.583 34.75 58.75 L 32.9 58.95 L 30.75 59.1 C 30.517 59.167 29.733 59.9 28.4 61.3 L 24.476 61.682 L 22.15 64.75 L 18.6 66.1 L 17.55 67.25 L 16.35 69.1 L 16.2 69.35 C 15.633 70.783 14.9 71.7 14 72.1 C 11.467 73.167 8.75 74.967 5.85 77.5 C 3.217 79.8 1.867 81.317 1.8 82.05 C 1.8 82.95 2.383 84.283 3.55 86.05 L 7.1 90.65 L 10.35 94.9 C 11.117 96.067 11.517 97.033 11.55 97.8 C 11.617 99.7 12.3 102.017 13.6 104.75 C 22.933 109.883 28.15 112.5 29.25 112.6 L 36.6 109.65 C 41.433 107.55 44.117 106.533 44.65 106.6 C 45.283 106.667 46.667 107.25 48.8 108.35 C 50.933 109.45 52.133 110.2 52.4 110.6 L 53.4 113.05 C 54.767 116.783 55.617 118.8 55.95 119.1 C 56.717 119.5 59.85 120.133 65.35 121 L 76.5 121.95 C 78.067 121.75 80.383 119.75 83.45 115.95 C 84.317 114.917 84.9 114.267 85.2 114 C 85.567 113.667 85.917 113.5 86.25 113.5 L 92.5 113.6 L 99.6 113.9 C 99.833 113.933 100.633 114.367 102 115.2 C 105.867 117.567 108.517 118.783 109.95 118.85 C 111.25 118.883 114.033 117.1 118.3 113.5 C 122.433 110.033 124.717 107.717 125.15 106.55 C 125.25 106.217 125.483 106.017 125.85 105.95 L 130 106.1 C 134.567 106.433 137.383 106.4 138.45 106 C 139.75 105.5 140.95 104.667 142.05 103.5 L 143.7 101.2 C 143.833 100.967 144 100.817 144.2 100.75 C 145.667 100.35 147.667 99.183 150.2 97.25 L 154.2 93.85 C 154.533 93.483 154.833 92.367 155.1 90.5 C 155.367 88.567 155.367 87.3 155.1 86.7 C 154.767 85.867 153.733 84.7 152 83.2 C 149.833 81.267 147.333 79.583 144.5 78.15 L 143.95 77.5 L 143.8 76.95 L 143.05 74.6 L 143 73.55 C 143 73.25 142.767 73.017 142.3 72.85 L 139.55 72.25 C 138.183 71.883 137.267 71.383 136.8 70.75 L 134.65 68.5 L 132.65 67 C 129.283 65.333 127.2 64.45 126.4 64.35 L 123.35 64.7 L 120.15 65.1" fill="#0d131a"/>
    <path d="M 38.786 59.319 C 38.205 59.9 38.902 59.806 38.333 60.367 C 37.966 60.728 38.381 61.199 38.144 61.667 C 37.451 63.031 38.401 63.434 37.687 64.839 C 37.379 65.447 39.204 69.323 38.77 69.751 C 38.634 69.885 36.955 68.961 36.9 68.795 C 36.505 67.611 36.325 64.719 36.565 63.497 C 36.906 61.768 36.457 59.313 37.524 58.246 C 37.674 58.096 39.753 57.394 39.753 57.255" style="fill: rgb(13, 19, 26);"/>
    <path d="M 119.8 63.572 C 120.27 64.748 121.007 63.045 120.247 64.54 C 120.03 64.969 115.913 65.769 115.578 66.099 C 115.292 66.381 120.381 76.065 120.114 76.328 C 119.651 76.783 119.432 77.038 118.821 77.158 C 118.21 77.278 116.852 77.852 115.954 77.852 C 115.738 77.852 116.373 77.723 116.588 77.723 C 116.785 77.723 114.414 78.518 114.562 78.368 C 115.364 77.554 118.027 76.661 117.838 76.282 C 117.412 75.431 117.373 73.838 116.972 73.036 C 116.495 72.081 114.043 64.749 113.585 63.834 C 113.417 63.499 115.962 63.862 115.962 63.575" style="fill: rgb(13, 19, 26);"/>
  </g>
  <path d="M 370.002 236.57 L 371.023 202.612 L 373.342 202.879 L 379.526 202.341 L 385.707 200.992 L 391.888 201.127 L 392.507 201.397 L 394.823 201.263 C 396.78 201.263 399.87 202.027 404.096 203.556 C 408.012 204.906 410.588 206.072 411.823 207.063 C 414.296 207.963 416.923 209.942 419.706 212.999 C 422.693 216.238 425.217 218.397 427.278 219.475 C 429.853 220.737 432.583 221.634 435.469 222.176 C 437.942 222.714 440.466 223.705 443.04 225.142 C 444.794 226.132 445.668 227.616 445.668 229.595 L 449.376 236.341 L 449.84 240.119 L 472.557 254.016 C 480.695 259.232 484.766 263.73 484.766 267.508 C 484.766 276.054 482.347 282.843 477.503 287.881 C 472.866 292.649 464.368 297.506 452.003 302.452 C 450.047 303.173 446.079 305.914 440.104 310.684 C 434.334 315.18 430.007 317.834 427.124 318.643 C 423.414 319.632 417.131 319.632 408.269 318.643 L 392.66 317.698 L 371.642 335.237 C 358.762 346.302 348.616 352.15 341.199 352.778 C 339.655 352.958 333.78 350.574 323.581 345.627 C 313.382 340.681 307.509 338.252 305.963 338.341 C 300.709 338.699 294.991 338.748 288.809 338.476 L 270.574 338.341 C 267.893 338.43 262.641 342.253 254.81 349.809 C 246.981 357.275 241.673 361.009 238.893 361.009 C 207.573 361.009 185.937 358.355 173.987 353.047 C 171.103 351.699 168.475 347.381 166.103 340.096 C 163.632 332.809 161.313 328.626 159.15 327.549 L 150.187 322.961 C 148.334 322.152 145.242 321.252 140.914 320.263 C 136.071 319.094 127.212 321.565 114.333 327.683 C 101.455 333.8 93.934 336.542 91.771 335.914 C 78.79 332.315 69.361 329.255 63.49 326.738 C 56.278 323.679 49.324 319.542 42.627 314.325 C 39.845 312.166 37.733 308.119 36.29 302.183 C 34.745 295.617 33.303 291.478 31.963 289.769 L 23 277.762 L 13.881 266.969 L 6.619 258.738 C 4.354 255.41 3.939 252.398 5.382 249.699 C 7.444 245.739 13.007 240.975 22.074 235.396 L 44.017 222.309 L 46.027 220.825 C 46.027 217.229 46.336 214.979 46.955 214.079 C 47.779 212.82 49.065 211.832 50.817 211.111 C 51.641 210.752 52.415 210.524 53.135 210.436 L 55.608 208.144 L 60.399 205.039 C 71.009 202.341 77.606 200.406 80.181 199.238 C 83.888 197.709 87.238 195.371 90.224 192.221 L 94.088 189.254 C 95.943 188.175 97.489 187.453 98.725 187.095 L 109.233 186.69 L 112.634 186.555 L 116.96 186.015 L 132.044 188.089 C 94.936 236.63 166.333 253.47 184.538 237.68 C 214.235 256.397 212.386 262.059 257.518 254.815 C 275.454 251.936 305.908 240.245 330.325 247.08" fill="#b9bf9c" style="stroke-width: 3px; vector-effect: non-scaling-stroke;"/>
  <path d="M 302.254 245.652 L 299.319 240.119 L 317.864 240.388 C 319.512 240.658 322.963 244.481 328.218 251.856 L 341.199 245.516 L 354.334 242.683 L 367.935 240.119 C 369.273 240.119 369.994 239.4 370.097 237.959 L 370.406 203.556 L 379.988 202.476 L 392.507 201.397 C 394.875 201.306 400.285 202.7 408.731 205.579 C 410.69 206.3 413.884 208.637 418.315 212.595 L 426.04 219.475 C 426.968 220.106 429.801 221.004 434.539 222.176 L 442.886 224.333 C 444.328 224.962 446.286 229.82 448.757 238.904 L 452.003 240.793 L 457.103 243.357 L 471.321 252.801 C 479.46 258.738 483.583 262.066 483.686 262.786 C 483.993 264.136 483.89 267.014 483.376 271.42 C 482.86 276.816 481.882 280.999 480.44 283.966 C 479.101 286.756 484.761 291.488 474.768 296.885 L 448.757 303.532 L 443.659 310.144 C 442.011 312.21 436.756 315.043 427.896 318.643 C 425.422 319.543 413.163 319.272 391.115 317.834 L 379.526 329.436 C 375.093 333.934 362.319 341.715 341.199 352.778 C 337.078 319.497 335.172 300.114 335.48 294.627 C 335.686 291.568 331.359 285.092 322.499 275.197 C 312.917 264.495 307.766 258.243 307.044 256.444 L 302.254 245.652" fill="#92967b" style=""/>
  <path d="M 267.274 289.706 C 270.675 286.107 273.095 283.86 274.538 282.96 C 276.084 282.062 279.739 280.801 285.51 279.183 L 286.746 275.001 C 287.776 272.122 288.756 270.502 289.683 270.143 L 309.464 268.793 C 320.9 267.444 327.699 267.309 329.864 268.388 C 331.717 269.288 334.705 272.436 338.827 277.834 L 345.78 276.888 L 352.117 274.055 C 355.516 272.436 357.886 271.581 359.224 271.491 L 364.635 270.276 L 371.279 269.064 L 378.542 268.658 C 381.014 268.479 382.562 267.939 383.18 267.039 L 389.516 262.856 C 392.711 261.147 394.719 260.204 395.542 260.023 L 402.961 259.754 L 412.232 260.699 C 416.767 261.957 420.114 263.533 422.278 265.421 L 427.533 270.683 C 430.315 273.381 432.785 275.314 434.949 276.485 L 443.915 281.341 L 451.329 283.391 L 480.192 297.173 C 483.387 301.311 478.131 304.826 478.131 308.064 L 458.386 316.928 C 455.297 320.616 452.98 316.375 451.023 320.601 C 449.064 324.74 445.423 331.668 438.209 333.378 C 430.072 334.637 423.29 335.436 420.714 336.246 L 404.984 335.283 L 391.344 336.036 C 389.696 336.396 385.749 336.446 382.555 346.791 L 367.569 357.092 C 368.424 358.606 355.231 369.143 338.379 367.944 L 339.239 368.328 C 338.416 368.689 335.989 370.252 323.524 365.395 C 310.234 360.177 303.66 358.245 297.786 358.874 L 271.941 359.79 C 261.122 361.229 255.22 358.606 253.984 360.405 C 252.542 362.473 249.811 364.228 245.794 365.666 C 241.672 367.107 237.964 367.601 234.665 367.15 L 222.766 363.508 L 202.985 362.43 C 197.099 357.3 175.23 370.565 169.984 354.027 C 165.608 340.233 156.103 324.151 152.909 324.151 C 148.788 324.151 130.841 313.792 118.684 319.91 C 107.762 325.397 100.591 327.542 100.075 326.553 L 86.675 331.537 L 82.598 328.329 C 80.014 327.622 71.692 333.377 68.583 327.18 C 65.79 321.611 60.783 321.758 60.783 318.25 C 60.783 315.821 61.065 313.993 65.599 309.406 L 72.399 303.197 C 74.151 301.4 76.675 299.691 79.972 298.071 L 85.844 294.697 C 87.389 292.989 93.777 288.268 105.007 280.532 C 119.946 270.007 128.805 264.52 131.589 264.071 L 139.314 264.611 C 142.096 265.24 144.054 265.959 145.188 266.77 L 149.051 268.119 C 150.802 268.209 152.347 267.85 153.686 267.039 L 164.041 260.293 C 164.659 260.023 167.75 260.023 173.313 260.293 L 185.368 260.968 L 193.095 261.643 C 195.772 262.002 197.68 262.587 198.813 263.396 L 206.385 269.738 L 214.268 276.485 C 216.018 277.654 218.44 278.822 221.53 279.992 L 228.175 281.611 L 237.294 280.261 L 246.72 279.183 C 249.09 279.452 255.942 282.96 267.274 289.706" fill="#b9bf9c" style=""/>
  <path d="M 299.473 240.523 L 305.037 240.119 L 317.864 240.388 C 319.717 241.288 322.705 244.436 326.827 249.834 L 328.218 251.856 L 341.507 245.381 L 362.989 240.928 C 367.728 240.748 370.458 240.119 371.18 239.039 L 377.516 234.856 C 380.711 233.147 382.719 232.204 383.542 232.023 L 390.961 231.754 L 400.232 232.699 C 404.767 233.957 408.114 235.533 410.278 237.421 L 415.533 242.683 C 418.315 245.381 420.785 247.314 422.949 248.485 C 424.6 249.475 428.36 250.911 434.232 252.801 C 439.383 254.42 442.475 255.726 443.505 256.716 C 451.747 265.169 455.866 271.869 455.866 276.816 L 450.613 282.348 C 446.698 286.845 443.762 291.207 441.804 295.436 C 439.848 299.663 435.261 303.037 428.05 305.555 C 419.911 307.624 414.554 309.063 411.978 309.872 C 408.989 310.773 402.962 310.277 393.897 308.389 L 378.597 305.555 C 376.95 305.916 374.426 311.087 371.023 321.07 L 365.771 338.341 C 365.358 339.691 361.907 340.322 355.417 340.231 C 348.822 340.138 343.463 339.376 339.345 337.936 C 336.564 312.751 335.275 298.315 335.48 294.627 C 335.686 291.568 331.359 285.092 322.499 275.197 C 312.917 264.495 307.766 258.243 307.044 256.444 C 305.088 251.319 302.563 246.012 299.473 240.523" fill="#92967b" style=""/>
  <path d="M 235.184 295.975 C 244.045 293.009 249.3 291.974 250.946 292.873 C 252.596 293.773 255.79 301.193 260.528 315.136 C 265.165 329.167 267.07 337.126 266.247 339.015 L 256.664 349.135 L 246.929 356.556 C 241.984 359.703 238.893 361.368 237.657 361.548 C 205.511 360.288 189.44 358.176 189.44 355.206 C 189.44 352.149 193.921 343.243 202.886 328.492 C 210.51 316.169 215.918 307.94 219.111 303.801 C 220.967 301.553 226.324 298.945 235.184 295.975" fill="#92967b" style=""/>
  <path d="M 48.808 293.009 C 54.989 280.415 58.648 273.849 59.781 273.309 C 69.157 269.531 74.515 266.924 75.852 265.484 L 83.271 258.872 L 90.688 253.205 L 108.924 241.604 L 115.107 237.421 C 118.196 235.533 120.411 234.587 121.751 234.587 L 135.814 241.198 C 136.743 241.647 138.03 245.786 139.677 253.611 L 142.304 269.802 C 142.511 273.759 141.686 290.354 139.832 319.586 C 109.748 330.65 93.727 336.093 91.771 335.914 C 90.431 335.821 81.777 332.135 65.807 324.85 C 50.249 317.743 41.905 313.786 40.771 312.977 C 39.947 312.346 42.627 305.69 48.808 293.009" fill="#92967b" style=""/>
  <path d="M 307.203 254.95 L 298.313 259.143 L 279.03 255.531 C 275.011 255.982 273.957 249.011 273.133 249.732 C 272.307 250.453 282.842 248.588 281.915 251.198 L 274.282 252.936 C 268.617 254.016 264.855 255.229 263.001 256.578 C 261.866 257.388 260.63 259.008 259.292 261.437 L 256.356 266.697 C 255.635 267.957 254.863 269.891 254.039 272.499 C 253.317 274.929 252.956 276.593 252.956 277.491 L 253.11 280.461 C 253.01 281.541 252.544 282.124 251.72 282.214 C 250.793 282.394 249.866 281.764 248.937 280.325 C 248.113 278.887 247.754 277.491 247.857 276.143 L 251.72 262.65 L 245.383 257.928 C 241.159 255.229 238.121 253.656 236.266 253.205 L 226.067 253.882 L 213.858 255.229 C 210.56 255.229 206.903 254.331 202.886 252.532 C 199.176 250.911 196.806 249.339 195.777 247.809 C 190.521 240.704 186.76 236.567 184.494 235.396 L 173.987 234.587 L 163.632 234.992 C 155.596 234.363 150.598 234.946 148.642 236.746 L 142.769 240.388 C 140.089 241.738 138.032 242.413 136.587 242.413 C 135.454 242.413 133.288 241.604 130.096 239.984 L 123.916 237.421 C 122.577 237.24 120.104 237.913 116.497 239.444 C 112.891 240.975 110.316 242.413 108.769 243.762 L 98.571 251.319 L 87.907 259.277 L 80.953 264.539 L 74.772 269.127 C 73.844 270.026 71.424 271.197 67.508 272.635 L 60.399 275.197 C 59.471 275.649 58.7 275.332 58.081 274.254 C 57.462 273.085 57.67 272.276 58.7 271.825 L 65.344 269.397 C 70.391 267.057 74.361 264.316 77.244 261.167 C 80.642 257.477 88.318 251.903 100.27 244.436 C 112.016 236.969 119.225 233.103 121.907 232.834 C 125.408 232.476 127.933 233.148 129.478 234.856 L 132.261 236.205 L 137.514 237.421 C 140.605 237.421 143.541 236.205 146.324 233.777 C 149.931 230.629 154.924 229.46 161.313 230.269 L 176.614 231.35 L 189.132 232.834 C 190.677 233.372 192.428 235.036 194.385 237.826 L 199.022 243.897 C 205.202 249.293 210.82 251.992 215.865 251.992 L 226.222 250.237 L 234.411 248.485 L 241.519 249.969 C 244.403 250.865 246.465 251.721 247.701 252.532 L 255.805 255.786 C 257.25 253.268 260.373 254.196 265.009 251.856 C 267.276 250.688 269.439 249.745 271.501 249.023 C 272.635 245.966 278.981 247.745 279.806 246.396 C 280.323 245.405 286.062 255.357 289.152 254.279 C 292.243 253.288 291.882 250.325 294.456 250.325 L 310.238 250.082 L 314.308 237.421 C 318.326 237.33 320.696 237.826 321.417 238.904 L 328.211 247.076 L 339.962 243.897 C 342.229 242.907 351.908 240.396 369.319 237.339 L 377.67 232.293 L 385.087 228.785 L 391.115 229.73 L 400.232 231.35 L 407.806 233.372 C 410.999 234.363 413.112 235.533 414.141 236.881 C 419.189 243.268 423.621 247.315 427.431 249.023 C 430.522 250.373 434.232 253.071 438.558 257.119 C 439.383 258.288 439.074 258.784 437.632 258.604 C 436.396 258.422 435.004 257.882 433.459 256.984 C 432.635 256.444 429.389 255.006 423.722 252.667 L 412.906 247.539 C 411.36 246.548 409.606 244.347 407.65 240.928 L 404.096 235.396 C 403.169 234.768 399.614 234.272 393.433 233.913 C 387.458 233.643 383.904 233.689 382.77 234.048 L 377.362 237.826 L 370.869 241.738 L 356.19 244.302 L 342.281 246.866 L 331.771 252.532 L 344.443 257.928 C 353.098 261.706 357.888 264.089 358.815 265.08 C 359.743 266.07 360.261 268.317 360.361 271.825 L 360.052 279.246 C 360.052 280.684 359.536 281.45 358.507 281.541 C 357.579 281.629 356.909 281.088 356.497 279.921 L 355.726 274.39 L 354.952 269.127 C 354.644 268.229 352.224 266.517 347.689 263.999 L 339.498 259.682 L 326.362 253.205 C 325.434 252.667 324.097 250.865 322.345 247.809 L 319.407 242.413 L 315.766 256.666" fill="#0d131a" style=""/>
  <path d="M 70.29 220.15 L 75.543 217.181 L 83.116 213.135 L 91.151 209.223 L 100.425 208.547 C 104.546 208.998 109.337 210.389 114.797 212.73 C 120.258 215.069 123.968 217.363 125.924 219.611 C 127.468 221.32 128.397 223.254 128.706 225.412 C 129.015 226.852 139.503 235.862 137.854 238.023 C 136.206 240.18 132.782 237.637 132.782 236.375 L 123.451 223.928 C 123.349 222.761 121.08 221.048 116.651 218.801 C 112.84 216.823 109.953 215.609 107.997 215.159 L 99.497 213.542 L 90.688 213.81 L 70.445 223.928 L 58.544 228.517 L 48.499 232.699 C 47.366 233.419 45.306 236.429 42.318 241.738 L 39.999 246.46 C 39.173 248.168 38.143 249.427 36.91 250.237 C 35.262 251.319 34.025 251.812 33.201 251.721 C 32.272 251.542 32.066 250.642 32.583 249.023 C 33.407 246.775 35.364 243.31 38.454 238.635 C 41.235 234.317 43.143 231.707 44.173 230.81 C 44.893 230.181 49.065 228.426 56.691 225.547 L 70.29 220.15" fill="#0d131a" style=""/>
  <path d="M 372.725 206.31 C 370.354 206.31 368.656 205.68 367.625 204.421 C 366.595 203.161 367.161 202.352 369.323 201.992 L 380.298 200.642 L 392.815 199.968 C 395.597 200.149 399.871 201.046 405.642 202.666 C 411.72 204.375 415.07 205.723 415.686 206.713 L 420.632 213.19 C 423.516 216.518 425.474 218.406 426.506 218.859 L 436.086 221.556 L 444.741 224.254 L 447.521 230.326 L 449.994 238.017 C 458.854 242.064 466.839 246.561 473.949 251.507 C 480.543 256.275 484.509 260.052 485.848 262.842 C 486.26 263.65 486.26 267.697 485.848 274.985 C 485.436 282.541 484.715 295.858 483.686 296.937 C 481.933 298.735 481.688 305.274 474.579 309.5 C 466.131 314.448 460.534 316.696 455.177 318.226 C 450.026 326.591 447.334 330.072 440.02 332.411 C 437.545 333.221 428.44 336.305 417.107 335.495 L 397.417 335.224 C 393.605 340.62 387.266 343.436 375.317 352.698 C 362.128 362.864 357.751 370.282 352.601 370.101 C 349.304 370.011 347.11 375.622 337.529 370.496 L 313.876 366.797 C 312.741 366.526 301.175 363.19 290.255 363.461 L 269.288 363.552 L 254.112 366.369 C 245.663 373.743 228.651 368.642 224.839 369.092 L 196.653 365.494 C 178.107 362.976 168.409 360.441 165.833 358.914 C 164.7 358.283 166.67 349.769 163.478 341.585 L 158.995 329.171 C 157.862 328.361 154.565 326.743 149.105 324.314 C 143.541 321.796 140.192 320.448 139.061 320.266 L 115.724 329.442 L 91.771 338.615 C 88.473 338.886 70.805 330.43 38.763 313.251 C 34.333 304.976 31.963 300.618 31.654 294.682 C 31.552 293.513 29.748 291.265 26.245 287.937 L 16.664 278.762 C 6.464 267.79 1.364 258.882 1.364 252.048 C 1.364 248.72 6.103 243.458 15.582 236.262 C 25.164 228.975 34.179 223.804 42.627 220.745 C 43.966 220.206 45.253 218.587 46.49 215.888 C 46.49 214.899 46.645 214.18 46.955 213.73 L 50.971 209.277 C 53.031 207.478 54.784 206.174 56.225 205.363 C 57.36 204.735 61.222 203.7 67.816 202.263 L 79.097 199.562 L 87.444 193.221 L 95.634 186.745 L 101.507 185.937 L 107.225 186.071 L 112.479 184.586 L 117.269 182.968 C 118.815 182.968 122.937 184.091 129.634 186.342 C 130.87 186.61 131.229 187.42 130.714 188.77 C 130.2 190.119 129.478 190.703 128.55 190.523 L 117.269 188.499 L 112.479 188.229 C 110.831 188.409 109.594 188.725 108.769 189.175 L 103.052 189.714 L 96.407 190.119 C 95.686 190.299 93.264 192.278 89.144 196.055 L 81.416 201.992 L 69.826 205.363 L 58.853 209.008 L 55.608 212.111 L 51.9 217.103 L 51.436 217.778 C 49.684 221.644 47.418 224.118 44.636 225.199 C 36.807 228.076 28.409 232.933 19.445 239.77 C 11.306 245.976 7.134 250.069 6.929 252.048 C 6.929 254.477 8.732 258.075 12.336 262.842 L 23.31 275.254 L 33.355 286.723 C 35.723 289.871 36.961 292.479 37.064 294.548 C 37.268 299.675 39.382 303.177 43.398 310.552 C 72.247 324.405 88.369 331.465 91.771 331.735 L 114.487 323.775 C 129.427 318.108 137.72 315.364 139.369 315.545 C 141.326 315.725 145.603 317.299 152.196 320.266 C 158.789 323.234 162.499 325.259 163.323 326.338 L 166.413 332.95 C 170.637 343.023 170.069 351.345 170.591 352.414 C 172.96 353.493 185.487 358.46 202.486 360.8 L 237.892 364.381 C 242.734 363.843 246.019 367.589 255.496 357.336 C 258.174 354.546 260.618 360.021 261.31 356.827 C 261.617 355.413 271.823 355.827 272.853 355.827 L 289.893 356.615 L 308.431 357.903 C 309.15 357.994 316.891 357.465 321.116 359.716 C 333.067 366.102 344.066 362.255 348.496 362.437 C 352.513 362.525 359.589 355.338 372.777 345.625 C 385.552 336.269 390.827 333.073 392.166 329.924 C 392.477 329.024 393.685 330.352 394.818 330.172 L 415.642 329.051 C 429.756 329.95 431.335 326.466 434.632 325.386 C 438.648 324.037 441.934 321.449 445.334 318.3 L 449.333 314.554 C 449.742 313.925 451.36 311.399 451.98 311.219 C 456.512 310.14 462.27 310.335 470.101 305.118 L 477.966 292.889 C 478.997 291.898 479.925 279.886 480.748 274.849 C 481.573 269.632 481.573 266.214 480.748 264.595 C 479.719 262.345 476.525 259.199 471.166 255.151 C 464.471 249.934 456.744 245.391 447.986 241.523 L 446.286 239.77 L 445.821 238.286 L 443.505 231.944 L 443.349 229.111 C 443.349 228.301 442.629 227.672 441.187 227.223 L 432.686 225.602 C 428.462 224.615 425.629 223.265 424.187 221.556 L 417.543 215.484 L 411.36 211.436 C 400.953 206.939 394.514 204.556 392.042 204.284 L 382.614 205.23 L 372.725 206.31" fill="#0d131a" style=""/>
  <path d="M 132.249 187.935 C 130.452 189.505 131.658 190.123 129.899 191.636 C 128.765 192.61 127.404 199.078 126.672 200.34 C 124.531 204.022 126.328 207.644 124.122 211.434 C 123.169 213.076 123.953 215.965 122.61 217.119 C 122.19 217.481 119.516 216.701 119.347 216.254 C 118.125 213.057 119.633 204.631 120.371 201.334 C 121.427 196.668 123.587 192.724 126.885 189.843 C 127.347 189.439 130.65 187.344 130.65 186.966" style="fill: rgb(13, 19, 26);"/>
  <path d="M 367.785 203.288 C 369.239 206.46 369.822 198.766 367.473 202.8 C 366.803 203.957 369.581 218.83 368.546 219.722 C 367.662 220.482 368.815 223.122 367.989 223.829 C 366.559 225.059 368.724 229.497 367.193 230.818 C 365.656 232.136 366.462 239.72 363.688 239.72 C 363.021 239.72 364.983 239.373 365.646 239.373 C 366.254 239.373 368.565 238.801 369.021 238.398 C 371.501 236.201 371.924 234.919 373.648 231.861 C 374.296 230.716 373.915 226.148 373.33 225.125 C 372.015 222.831 374.881 219.228 373.642 217.062 C 372.168 214.486 371.992 205.762 370.576 203.294 C 370.058 202.39 369.338 203.37 369.338 202.597" style="fill: rgb(13, 19, 26);"/>
</svg>